<?xml version="1.0" standalone="no"?>
<!DOCTYPE svg PUBLIC "-//W3C//DTD SVG 20010904//EN"
 "http://www.w3.org/TR/2001/REC-SVG-20010904/DTD/svg10.dtd">
<svg version="1.0" xmlns="http://www.w3.org/2000/svg"
 width="266.000000pt" height="266.000000pt" viewBox="0 0 266.000000 266.000000"
 preserveAspectRatio="xMidYMid meet">
<metadata>
Created by potrace 1.14, written by Peter Selinger 2001-2017
</metadata>
<g transform="translate(0.000000,266.000000) scale(0.100000,-0.100000)"
fill="#000000" stroke="none">
<path d="M765 2326 c-128 -39 -186 -118 -189 -256 l-1 -44 405 0 405 0 -1 42
c-4 108 -64 211 -146 250 -39 19 -61 21 -238 20 -123 0 -210 -5 -235 -12z"/>
<path d="M1345 2313 c29 -29 58 -87 69 -138 3 -17 9 -41 12 -55 3 -14 7 -133
9 -265 2 -132 4 -245 4 -250 1 -16 378 -16 384 -1 2 6 3 130 2 276 -2 296 -7
322 -73 389 -53 55 -112 69 -286 70 l-150 2 29 -28z"/>
<path d="M380 1976 c-77 -25 -144 -81 -159 -135 -2 -9 -6 -92 -8 -186 l-4
-170 22 23 c21 23 94 60 134 68 11 2 33 6 49 10 42 9 138 13 349 15 l187 1 0
194 0 195 -267 -2 c-168 -1 -281 -6 -303 -13z"/>
<path d="M1884 1962 c-16 -10 -15 -680 1 -686 21 -8 90 30 118 65 41 51 97
127 97 132 0 2 -35 14 -77 27 -78 22 -103 35 -103 51 0 15 45 60 65 63 11 2
40 9 65 16 25 7 54 14 65 16 81 15 77 10 70 72 -12 116 -81 207 -178 233 -56
15 -110 20 -123 11z"/>
<path d="M2619 1906 c-2 -2 -27 -6 -55 -10 -96 -11 -162 -54 -231 -150 -47
-65 -79 -96 -101 -97 -9 0 -24 -2 -32 -4 -8 -2 -55 -13 -105 -25 -49 -11 -98
-22 -109 -25 -17 -4 -45 -32 -46 -45 0 -3 39 -18 87 -33 l87 -26 19 20 c11 11
21 18 24 15 6 -6 -131 -192 -162 -219 -31 -29 -65 -44 -120 -52 -27 -5 -53 -9
-57 -11 -5 -1 -12 -2 -18 -3 -17 -2 -11 -28 8 -34 9 -3 48 -16 85 -30 38 -14
76 -23 85 -20 9 3 167 157 350 341 276 279 332 340 332 363 0 25 -29 56 -41
45z"/>
<path d="M400 1535 c-86 -22 -143 -65 -174 -129 -13 -28 -16 -72 -15 -253 0
-141 5 -229 12 -248 40 -103 111 -152 240 -168 50 -6 69 12 57 54 -5 17 -5 40
0 53 4 12 5 28 1 34 -4 6 -5 35 -3 64 1 29 3 60 3 68 0 8 0 62 0 120 0 58 -1
116 -2 130 -1 26 -1 41 0 75 2 37 1 180 -1 203 -2 15 -52 14 -118 -3z"/>
<path d="M2324 1430 l-50 -50 11 -55 c14 -70 25 -82 52 -53 14 16 24 49 32
112 7 48 10 90 9 92 -2 2 -27 -19 -54 -46z"/>
<path d="M2173 1207 c-15 -24 -68 -55 -123 -71 -79 -24 -157 -30 -397 -31
l-213 0 0 -192 0 -193 28 -1 c15 0 133 -1 262 -2 288 -2 322 4 394 76 26 26
45 51 42 54 -3 3 0 13 6 21 12 14 25 352 14 352 -3 0 -9 -6 -13 -13z"/>
<path d="M588 1110 l-23 -6 0 -249 c-1 -268 7 -331 46 -386 30 -44 45 -56 99
-81 39 -19 65 -22 201 -23 l156 -1 -33 44 c-62 81 -75 157 -79 460 -2 128 -5
236 -8 238 -7 7 -331 10 -359 4z"/>
<path d="M1006 633 c9 -72 11 -79 33 -128 25 -57 80 -110 134 -127 54 -18 391
-17 456 1 118 33 191 135 191 265 l0 36 -410 0 -411 0 7 -47z"/>
</g>
</svg>
