<?xml version="1.0" encoding="UTF-8" ?>
<!DOCTYPE svg PUBLIC "-//W3C//DTD SVG 1.1//EN" "http://www.w3.org/Graphics/SVG/1.1/DTD/svg11.dtd">
<svg width="480pt" height="480pt" viewBox="0 0 480 480" version="1.1" xmlns="http://www.w3.org/2000/svg">
<g id="#ffffffff">
<path fill="#ffffff" opacity="1.00" d=" M 459.43 0.00 L 480.00 0.00 L 480.00 21.57 C 479.32 17.32 478.02 13.05 475.38 9.58 C 471.68 4.29 465.61 1.30 459.43 0.00 Z" />
</g>
<g id="#282828ff">
<path fill="#282828" opacity="1.00" d=" M 301.56 0.00 L 459.43 0.00 C 465.61 1.30 471.68 4.29 475.38 9.58 C 478.02 13.05 479.32 17.32 480.00 21.57 L 480.00 123.42 C 478.94 127.75 477.49 132.14 474.51 135.54 C 470.05 140.98 463.05 144.01 456.07 143.99 C 389.38 144.01 322.69 143.99 256.00 144.00 C 256.08 138.00 255.84 132.00 256.06 126.01 C 255.95 124.66 257.13 123.79 257.90 122.86 C 264.24 116.55 270.60 110.25 276.92 103.91 C 278.80 102.13 280.20 99.75 280.00 97.07 C 280.02 72.69 279.97 48.31 280.01 23.93 C 280.03 18.12 282.03 12.27 285.96 7.93 C 289.88 3.34 295.68 0.82 301.56 0.00 M 296.03 23.96 C 295.94 48.66 296.06 73.37 295.97 98.07 C 295.95 103.59 293.73 108.98 290.04 113.05 C 285.33 118.15 280.10 122.75 275.48 127.93 C 335.67 128.08 395.86 127.99 456.04 127.98 C 460.41 128.26 464.27 124.41 463.97 120.04 C 464.05 88.67 463.95 57.31 464.02 25.94 C 464.06 23.24 463.88 20.19 461.79 18.21 C 460.07 16.38 457.46 15.96 455.07 15.99 C 404.70 16.03 354.33 15.96 303.96 16.02 C 299.58 15.72 295.75 19.59 296.03 23.96 Z" />
<path fill="#282828" opacity="1.00" d=" M 82.02 51.01 C 96.91 35.64 117.62 25.87 139.05 24.77 C 157.90 23.61 177.08 28.74 192.81 39.18 C 207.73 48.99 219.48 63.55 225.75 80.28 C 228.97 88.54 230.30 97.36 232.15 106.00 C 234.81 118.65 237.33 131.34 240.04 143.99 C 242.75 157.33 238.35 172.01 228.27 181.28 C 221.02 188.18 211.04 191.94 201.07 191.99 C 192.71 192.04 184.36 191.97 176.01 192.00 C 176.02 198.19 175.90 204.37 176.13 210.55 C 195.79 216.85 215.31 223.57 234.91 230.05 C 251.76 235.56 265.13 249.97 269.86 266.99 C 272.55 275.74 271.95 284.98 272.00 294.00 C 272.02 305.61 271.96 317.21 272.03 328.82 C 285.30 322.70 298.53 316.50 311.87 310.55 C 297.46 297.88 288.32 279.30 288.04 260.03 C 287.96 240.00 288.00 219.96 288.01 199.93 C 287.99 189.93 291.76 179.93 298.62 172.62 C 306.07 164.55 317.01 159.95 327.97 160.01 C 359.98 159.99 391.99 160.00 424.00 160.00 C 424.01 191.67 423.98 223.33 424.01 254.99 C 424.11 261.72 423.64 268.49 421.94 275.02 C 418.63 288.81 410.63 301.13 400.13 310.55 C 412.17 315.85 424.07 321.47 436.06 326.90 C 444.91 331.06 454.39 334.49 461.61 341.35 C 472.31 350.81 478.53 364.56 480.00 378.65 L 480.00 480.00 L 232.00 480.00 C 232.00 453.33 232.00 426.67 232.00 400.00 C 160.00 400.00 88.00 400.00 16.00 400.00 C 16.00 421.33 16.00 442.66 16.00 464.00 C 82.67 464.00 149.33 464.00 216.00 464.00 C 215.99 469.33 216.01 474.67 216.00 480.00 L 0.00 480.00 L 0.00 383.99 C 5.33 384.01 10.66 383.99 16.00 384.00 C 16.00 353.00 16.00 322.00 16.00 291.00 C 16.02 284.69 15.74 278.31 16.96 272.08 C 19.41 258.87 26.96 246.76 37.63 238.63 C 43.51 234.04 50.34 230.83 57.42 228.58 C 75.59 222.61 93.66 216.36 111.87 210.55 C 112.10 204.37 111.98 198.18 111.99 192.00 C 103.66 191.99 95.32 192.00 86.99 192.02 C 75.09 192.06 63.23 186.52 55.86 177.13 C 48.47 168.00 45.39 155.50 48.00 144.01 C 51.81 126.86 55.61 109.71 59.44 92.56 C 62.95 76.98 70.88 62.45 82.02 51.01 M 97.84 56.81 C 86.07 66.73 77.39 80.56 74.43 95.73 C 82.99 91.73 90.77 86.23 99.41 82.39 C 113.88 76.15 131.23 77.14 144.81 85.17 C 151.43 89.15 159.27 91.14 166.99 90.31 C 173.79 89.81 179.92 86.62 186.14 84.11 C 192.58 81.38 199.10 78.82 205.49 75.96 C 194.24 55.60 172.33 41.66 149.10 40.18 C 130.72 38.81 111.90 44.88 97.84 56.81 M 199.20 95.20 C 199.14 111.13 199.21 127.05 199.17 142.98 C 199.27 149.36 196.63 155.63 192.18 160.17 C 188.54 164.04 183.64 166.30 179.46 169.50 C 177.38 171.03 176.54 173.57 175.73 175.91 C 184.17 176.08 192.62 175.99 201.07 175.99 C 213.83 176.06 226.05 164.04 224.13 150.96 C 221.53 137.95 218.73 124.98 216.09 111.97 C 214.54 104.77 213.39 97.48 211.19 90.43 C 207.17 91.97 203.19 93.61 199.20 95.20 M 104.86 99.05 C 104.77 113.37 104.86 127.70 104.80 142.02 C 104.84 144.50 104.75 147.39 106.72 149.24 C 111.88 153.83 118.82 156.29 123.11 161.90 C 126.49 166.33 128.75 171.70 129.52 177.22 C 129.72 187.48 129.48 197.74 129.63 208.00 C 140.30 207.95 150.98 208.10 161.66 207.92 C 161.55 197.28 161.53 186.64 161.65 176.01 C 161.80 167.47 167.06 159.65 174.24 155.28 C 178.39 152.33 184.54 149.92 184.77 143.99 C 184.87 130.34 184.84 116.68 184.77 103.02 C 173.12 108.02 159.68 108.45 147.71 104.27 C 141.44 102.26 136.09 98.05 129.63 96.57 C 121.40 94.35 112.50 95.32 104.86 99.05 M 70.46 117.53 C 68.14 128.01 65.79 138.49 63.70 149.02 C 61.12 162.62 73.34 176.23 86.96 176.00 C 95.09 175.99 103.22 176.06 111.35 175.94 C 111.08 169.77 104.59 167.73 100.41 164.56 C 93.36 160.21 88.23 152.50 88.05 144.09 C 87.89 131.84 88.09 119.59 87.97 107.34 C 82.04 110.58 76.33 114.19 70.46 117.53 M 311.92 181.95 C 306.80 186.43 303.98 193.20 304.00 199.96 C 303.98 218.30 304.02 236.65 303.99 255.00 C 303.78 262.39 304.65 269.88 307.37 276.80 C 313.73 294.37 330.39 307.58 348.92 309.92 C 364.65 312.17 381.24 306.72 392.50 295.49 C 402.47 285.78 408.14 271.90 408.00 258.00 C 408.00 230.67 408.00 203.33 408.00 176.00 C 381.32 176.00 354.64 175.99 327.96 176.01 C 322.13 175.99 316.28 178.06 311.92 181.95 M 117.56 225.32 C 109.39 228.18 101.10 230.66 92.98 233.66 C 99.50 240.39 106.14 247.02 112.86 253.55 C 120.59 247.71 128.30 241.85 136.00 235.98 C 136.00 231.98 136.00 227.99 136.00 224.00 C 129.86 224.37 123.42 222.95 117.56 225.32 M 152.00 224.00 C 152.00 227.99 152.00 231.98 152.00 235.97 C 159.70 241.85 167.41 247.71 175.14 253.55 C 181.87 247.02 188.50 240.40 195.02 233.66 C 186.90 230.66 178.61 228.18 170.44 225.32 C 164.58 222.95 158.14 224.37 152.00 224.00 M 44.92 252.90 C 36.77 260.20 32.08 271.07 32.01 281.98 C 31.99 315.98 32.00 349.99 32.00 384.00 C 45.33 384.00 58.67 384.00 72.00 384.00 C 72.00 352.00 72.00 320.00 72.00 288.00 C 77.33 288.00 82.67 288.00 88.00 288.00 C 88.00 320.00 87.99 352.00 88.00 384.00 C 104.00 384.00 120.00 384.00 136.00 384.00 C 135.97 341.34 136.06 298.68 135.96 256.03 C 127.68 262.12 119.52 268.38 111.13 274.32 C 99.42 262.62 87.74 250.91 76.02 239.23 C 65.45 243.19 53.46 244.92 44.92 252.90 M 176.87 274.32 C 168.49 268.37 160.32 262.12 152.04 256.02 C 151.94 298.68 152.03 341.34 152.00 384.00 C 168.00 384.00 184.00 384.00 200.00 384.00 C 200.00 362.67 200.00 341.33 200.00 320.00 C 205.33 320.00 210.66 320.00 216.00 320.00 C 216.00 341.33 216.00 362.66 216.00 384.00 C 221.32 384.01 226.63 383.99 231.95 384.01 C 231.36 365.52 240.60 347.15 255.97 336.81 C 256.03 318.53 256.00 300.26 255.98 281.98 C 255.94 266.13 245.22 251.22 230.55 245.50 C 224.43 243.21 218.18 241.29 211.98 239.23 C 200.26 250.91 188.58 262.63 176.87 274.32 M 272.03 346.03 C 258.12 352.26 248.17 366.62 248.03 381.97 C 247.95 409.31 248.02 436.66 248.00 464.00 C 319.46 464.00 390.92 464.00 462.38 464.00 C 462.45 437.01 462.42 410.01 462.39 383.02 C 462.54 368.05 453.83 353.13 440.08 346.84 C 421.53 338.37 402.90 330.08 384.33 321.66 C 382.09 320.26 379.80 322.11 377.65 322.76 C 361.70 329.03 343.58 327.57 327.98 321.00 C 309.21 329.02 290.69 337.73 272.03 346.03 Z" />
<path fill="#282828" opacity="1.00" d=" M 168.00 288.00 C 184.00 288.00 200.00 288.00 216.00 288.00 C 216.00 293.33 216.00 298.67 216.00 304.00 C 200.00 304.00 184.00 304.00 168.00 304.00 C 168.00 298.67 168.00 293.33 168.00 288.00 Z" />
<path fill="#282828" opacity="1.00" d=" M 104.00 424.00 C 130.67 424.00 157.33 424.00 184.00 424.00 C 184.00 429.33 184.00 434.66 184.00 440.00 C 157.33 440.00 130.67 440.00 104.00 440.00 C 104.00 434.66 104.00 429.33 104.00 424.00 Z" />
</g>
<g id="#1ccb0aff">
<path fill="#1ccb0a" opacity="1.00" d=" M 312.00 32.00 C 357.33 32.00 402.66 32.00 447.99 32.00 C 448.01 37.33 448.00 42.66 448.00 48.00 C 402.66 48.00 357.33 48.00 312.00 48.00 C 311.99 42.67 311.99 37.33 312.00 32.00 Z" />
<path fill="#1ccb0a" opacity="1.00" d=" M 312.00 64.00 C 357.33 64.00 402.66 64.00 447.99 64.00 C 448.01 69.33 448.00 74.66 448.00 80.00 C 402.66 80.00 357.34 80.00 312.01 80.00 C 311.99 74.67 311.99 69.33 312.00 64.00 Z" />
<path fill="#1ccb0a" opacity="1.00" d=" M 312.00 96.00 C 346.67 96.00 381.33 96.00 415.99 96.00 C 416.00 101.33 416.00 106.67 415.99 112.00 C 381.33 112.00 346.67 112.00 312.00 112.00 C 311.99 106.67 311.99 101.33 312.00 96.00 Z" />
</g>
</svg>
